<svg width="41" height="19" viewBox="0 0 41 19" fill="none" xmlns="http://www.w3.org/2000/svg">
<path d="M9.48506 0.73291C7.1412 0.73291 4.89334 1.66401 3.23598 3.32137C1.57862 4.97872 0.647522 7.22659 0.647522 9.57045C0.647522 11.9143 1.57862 14.1622 3.23598 15.8195C4.89334 17.4769 7.1412 18.408 9.48506 18.408C11.7992 18.363 14.0033 17.4121 15.6239 15.7596C17.2445 14.1072 18.1524 11.885 18.1524 9.57045C18.1524 7.25592 17.2445 5.03372 15.6239 3.38126C14.0033 1.7288 11.7992 0.777925 9.48506 0.73291ZM9.48506 2.17072C9.56865 2.17072 9.74587 2.17072 9.83615 2.17407V2.86455C9.71914 2.86204 9.6021 2.86037 9.48506 2.85954C8.60412 2.85734 7.73149 3.02982 6.91764 3.36701C6.10379 3.70421 5.36487 4.19941 4.74362 4.82399C4.11874 5.44502 3.62334 6.1839 3.28612 6.9978C2.94891 7.8117 2.7766 8.68444 2.77916 9.56543C2.77916 11.3577 3.47634 13.0429 4.74362 14.3069C5.36487 14.9315 6.10379 15.4267 6.91764 15.7639C7.73149 16.101 8.60412 16.2735 9.48506 16.2713C11.185 16.2682 12.8205 15.6212 14.0624 14.4607C15.3042 13.3001 16.06 11.7122 16.1776 10.0168V9.91653H11.6V9.23106H16.5838L16.8798 9.22938V9.56543C16.8829 10.5369 16.6932 11.4993 16.3219 12.3969C15.9505 13.2946 15.4048 14.1097 14.7164 14.7951C14.0306 15.4841 13.215 16.0303 12.3168 16.4023C11.4186 16.7742 10.4555 16.9643 9.48339 16.9618C7.51057 16.9618 5.65479 16.1927 4.25042 14.7951C3.56225 14.1096 3.01685 13.2944 2.6458 12.3967C2.27474 11.4991 2.08538 10.5368 2.08868 9.56543C2.09089 7.60431 2.87081 5.72413 4.25737 4.33725C5.64393 2.95038 7.52394 2.17003 9.48506 2.16738V2.17072ZM36.3404 3.63863C32.6456 3.63863 30.7028 5.65659 30.7028 9.50357C30.7028 13.3322 32.4583 15.4053 36.3203 15.4053C38.0925 15.4053 39.8296 14.9539 40.7726 14.2935V8.74956H36.1916V10.8795H38.34V12.8774C37.9437 13.0279 37.1697 13.18 36.434 13.18C34.06 13.18 33.2675 11.9729 33.2675 9.52196C33.2675 7.18468 34.0198 5.80705 36.3973 5.80705C37.718 5.80705 38.4704 6.22168 39.094 7.01415L40.7358 5.50612C39.736 4.07332 37.9822 3.63863 36.3387 3.63863H36.3404ZM22.2749 3.80916V15.2348H30.3835V13.0112H24.9165V3.80749L22.2749 3.80916ZM6.66293 5.68668C6.9445 5.68668 7.21453 5.79853 7.41363 5.99763C7.61272 6.19672 7.72457 6.46676 7.72457 6.74832C7.72457 7.02989 7.61272 7.29992 7.41363 7.49901C7.21453 7.69811 6.9445 7.80996 6.66293 7.80996C6.38137 7.80996 6.11134 7.69811 5.91224 7.49901C5.71314 7.29992 5.60129 7.02989 5.60129 6.74832C5.60129 6.46676 5.71314 6.19672 5.91224 5.99763C6.11134 5.79853 6.38137 5.68668 6.66293 5.68668ZM9.13397 5.69002H9.83615V12.7453H11.595V13.4375H9.13397V5.69002Z" fill="#A9A9B9"/>
</svg>
