<svg width="62" height="11" viewBox="0 0 62 11" fill="none" xmlns="http://www.w3.org/2000/svg">
<path d="M22.1653 0.0900879C24.5361 0.0900879 26.4332 0.682146 27.8825 2.00012C28.8735 2.8985 29.427 4.17785 29.4115 5.51899C29.4079 6.18073 29.2706 6.83491 29.0078 7.44226C28.7451 8.0496 28.3623 8.59759 27.8825 9.05331C26.5259 10.2992 24.4125 10.9633 22.1678 10.9633C19.9206 10.9633 17.8432 10.2992 16.4661 9.05331C15.9695 8.60954 15.574 8.06439 15.3063 7.45467C15.0385 6.84494 14.9047 6.18486 14.9138 5.51899C14.9138 4.18558 15.475 2.90622 16.4661 2.00012C17.7531 0.831447 20.0287 0.0900879 22.1653 0.0900879ZM22.173 9.53725C23.3597 9.53725 24.4588 9.12281 25.2311 8.35829C26.0033 7.58604 26.3457 6.65934 26.3457 5.51899C26.3457 4.42755 25.9647 3.40561 25.2311 2.67969C24.4743 1.93319 23.3442 1.50845 22.173 1.50845C21.0017 1.50845 19.8743 1.93061 19.1097 2.67969C18.3761 3.40561 17.9925 4.42755 17.9925 5.51899C17.9769 6.57555 18.3783 7.5957 19.1097 8.35829C19.8743 9.11509 20.9966 9.53725 22.173 9.53725ZM9.71147 4.47131C10.1233 4.57942 10.5223 4.71328 10.911 4.8909C11.2717 5.05512 11.6016 5.27972 11.8866 5.55503C12.3937 6.0853 12.6821 6.79577 12.6743 7.52683C12.6798 7.91445 12.5945 8.29798 12.425 8.64665C12.2556 8.99533 12.0069 9.29947 11.6987 9.53468C11.1536 9.94787 10.5339 10.252 9.87364 10.4305C8.87972 10.7424 7.84159 10.8902 6.8001 10.8681C5.89399 10.8681 5.39461 10.7626 4.70731 10.6184L4.5091 10.5772C3.75173 10.4097 3.01215 10.1701 2.30047 9.8616C2.26865 9.84003 2.23077 9.82921 2.19235 9.83071C2.1359 9.83205 2.08222 9.85542 2.04277 9.89583C2.00333 9.93624 1.98126 9.99047 1.98127 10.0469V10.5695H0.467669V6.76488H1.81653C1.82483 7.15058 1.94758 7.5251 2.16919 7.84088C2.71491 8.51016 3.30182 8.76758 3.86041 8.97351C4.80513 9.28241 5.79618 9.44715 6.78465 9.47805C8.20816 9.47805 9.03962 9.13311 9.21981 9.05846L9.24298 9.04816L9.25842 9.04301C9.41802 8.98381 10.0616 8.74956 10.0616 8.03394C10.0616 7.32862 9.4592 7.17417 9.06536 7.07378L9.00873 7.06091C8.57112 6.9425 7.56205 6.83439 6.46031 6.71855L6.06904 6.67736C5.03588 6.57215 4.00781 6.42185 2.98777 6.22688C1.70584 5.94373 1.2013 5.47523 0.887256 5.18435L0.866663 5.16376C0.408856 4.67561 0.154725 4.03108 0.156195 3.36185C0.156195 2.08506 1.03141 1.31281 2.10483 0.839169C3.25291 0.324337 4.61721 0.0952383 5.81162 0.0952383C7.92243 0.102961 9.6394 0.790261 10.2572 1.10946C10.5069 1.24331 10.6304 1.07857 10.6304 0.955006V0.571456H11.987V3.88697H10.772C10.6629 3.39497 10.3974 2.95153 10.0152 2.62306C9.7823 2.43573 9.52513 2.28074 9.2507 2.16229C8.23225 1.73225 7.13585 1.51753 6.03043 1.53162C4.89007 1.53162 3.79863 1.75042 3.25033 2.08506C2.91055 2.29614 2.7355 2.56128 2.7355 2.87275C2.7355 3.31808 3.11133 3.4957 3.30182 3.54976C3.80635 3.70421 4.92869 3.8149 5.80133 3.90242L6.32645 3.95648C7.1682 4.04142 8.9315 4.27567 9.71147 4.47131ZM56.4762 1.90487V0.67185H61.936V1.8817H60.7107C60.2679 1.8817 60.0878 1.96665 59.7531 2.34248L56.0798 6.53836C56.041 6.58995 56.0235 6.65444 56.0309 6.71855V8.62857C56.037 8.71739 56.0473 8.80586 56.0618 8.89371C56.0837 8.9497 56.1184 8.9998 56.163 9.04003C56.2077 9.08025 56.2612 9.10948 56.3192 9.12539C56.43 9.14173 56.5418 9.15033 56.6538 9.15113H57.9049V10.361H51.279V9.15113H52.4631C52.5751 9.15035 52.6869 9.14175 52.7977 9.12539C52.8566 9.10861 52.911 9.07919 52.9572 9.03917C53.0035 8.99915 53.0404 8.9495 53.0655 8.89371C53.0808 8.80877 53.0886 8.72262 53.0886 8.6363V6.72627C53.0886 6.66192 53.0886 6.66192 53.0037 6.56152C51.7945 5.18393 50.583 3.80847 49.369 2.43515C49.1733 2.23179 48.8387 1.90487 48.3238 1.90487H47.1449V0.695017H53.8068V1.90487H53.0037C52.8235 1.90487 52.6999 2.08506 52.8544 2.2807L55.1171 4.98614C55.1402 5.01703 55.1557 5.01703 55.1866 4.99386C55.2174 4.97069 57.4879 2.30387 57.5033 2.2807C57.522 2.25607 57.5357 2.22798 57.5435 2.19805C57.5513 2.16811 57.5531 2.13693 57.5488 2.10629C57.5445 2.07566 57.5342 2.04618 57.5184 2.01957C57.5026 1.99295 57.4818 1.96971 57.457 1.95121C57.4111 1.92112 57.3574 1.90502 57.3025 1.90487H56.4762ZM40.3002 1.89715H41.5487C42.1176 1.89715 42.2179 2.11595 42.2257 2.64623L42.2977 6.67736L35.6513 0.695017H30.9019V1.90487H31.9625C32.727 1.90487 32.7811 2.32703 32.7811 2.70286V8.39947C32.7811 8.72897 32.7837 9.15885 32.3126 9.15885H31.0101V10.361H36.5805V9.15113H35.2214C34.6757 9.15113 34.6551 8.90143 34.6448 8.37116V3.52659L42.2977 10.3507H44.2464L44.1434 2.63851C44.1537 2.07734 44.1923 1.88943 44.7689 1.88943H45.9865V0.67957H40.3002V1.89715Z" fill="#A9A9B9"/>
</svg>
